<svg xmlns="http://www.w3.org/2000/svg" width="100" height="100" viewBox="0 0 100 100"><path fill="#0A642F" d="M55.117 46.684c.145.025.309.061.496.096 2.166.357 7.521.901 11.854-1.669 5.076-3.021 6.951-9.301 7.221-10.345.293-.088.5-.146.016-.01.023-.089.031-.146.031-.146s-7.256-1.834-12.809 1.479c-3.354 1.993-5.322 5.411-6.34 7.803-.426 1-.701 1.82-.836 2.286-2.924 2.37-5.672 4.857-8.294 7.257.248-.575.442-1.229.616-1.93 1.482-1.222 5.68-5.114 6.418-10.315.906-6.329-3.663-12.193-3.663-12.193s-6.028 4.396-6.926 10.727c-.7 4.86 1.832 9.448 3.04 11.32.223.317.395.563.506.704-.362 1.372-.895 2.503-1.73 3.271l-.208.192v.007c-3.505 3.223-6.801 6.196-9.959 8.4a7.626 7.626 0 0 0 .694-1.594c1.171-1.037 5.771-5.504 6.245-11.254.532-6.589-4.565-12.375-4.565-12.375s-5.97 4.913-6.501 11.502c-.458 5.622 3.196 10.659 4.257 12.015-.447 1.43-1.223 2.532-2.551 3.184l-.241.118.031.055c-2.241 1.256-4.435 2.041-6.629 2.17l-.283.013.033.548.273-.014c2.944-.18 5.861-1.459 8.831-3.432.816-.362 1.776-.612 2.854-.757.125.172.334.425.588.74 1.487 1.785 5.057 5.415 9.82 6.271 6.377 1.146 12.514-3.119 12.514-3.119s-4.211-6.114-10.596-7.256c-3.717-.668-7.335.496-9.722 1.589 7.51.142 16.814 4.661 17.33 4.891l.225.096s-11.667-4.458-19.268-4.048c.031-.053.055-.079.078-.109-.188.107-.366.211-.512.298a12.8 12.8 0 0 0-1.723.309c2.813-2.07 5.703-4.675 8.765-7.48l.028.029.21-.185c1.062-.818 2.459-1.299 4.07-1.551.101.121.208.263.317.417 1.37 1.768 4.877 5.688 9.741 6.707 6.355 1.326 12.604-2.758 12.604-2.758s-4.021-6.229-10.365-7.563c-5.381-1.127-10.698 1.64-12.184 2.501-.935.135-1.767.342-2.482.633 2.519-2.322 5.45-5.009 8.559-7.543l.07.014c.059-.103.412-.458 1.006-.994.016-.518-.152-1.465-.078-1.677 4.793-3.827 8.764-6.121 14.883-8.188 0 0 .043-.021.119-.047l.326-.063c-6.207 2.443-12.779 7.739-15.25 9.975-.006.158-.027.28-.078.324-.479.397-.759.608-.876.674zm-18.548-5.653c.08-.496.159-.788.233-.787l-.069.25c-.056.175-.11.357-.164.537-.543 3.355-1.146 16.495-.784 18.046.417-.737.719-1.719.209-.072-.092.293-.159.289-.209.072-.282.5-.617.891-.792.279-.14 1.345-.637-10.85 1.576-18.325zm13.426 11.974c2.173-.056 8.525.87 19 5-1.895-.605-12.21-3.522-20.187-4.147l1.187-.853zm-4-3c-.26 1.688-.383-10.97 2.552-18.754l-1.553 15.754 1 3c.06.3-1.909-.068-1.999 0z"/></svg>