<svg xmlns="http://www.w3.org/2000/svg" width="100" height="100" viewBox="0 0 100 100"><path fill="#1E814E" d="M50.5 43.5h-5v5h6c.516.018 1.925-.504 2-2 .104-2.039-1.298-3-3-3zm-.5-16c-12.426 0-22.5 10.073-22.5 22.5 0 12.426 10.074 22.5 22.5 22.5 12.427 0 22.5-10.074 22.5-22.5S62.427 27.5 50 27.5zm4.491 33c0-.029.008-.051.008-.08 0-2.188-.96-7.92-2.999-7.92h-6v4c4.856-.138.975 0 0 0v4h-4V39.508l11-.008c4.135 0 6.15 2.463 6.15 6.454 0 2.104-1.064 3.573-2.951 4.474 2.524.717 3.844 7.585 3.962 10.072h-5.17z"/></svg>