<svg xmlns="http://www.w3.org/2000/svg" width="100" height="100" viewBox="0 0 100 100"><path fill="#68C4D2" d="M67.914 28.586A1.925 1.925 0 0 0 66.5 28h-31c-.553 0-1.022.195-1.413.586A1.926 1.926 0 0 0 33.5 30v1c0 .553.195 1.023.587 1.414.391.393.86.586 1.413.586h5c.554 0 1.022.195 1.414.586.392.392.586.861.586 1.414v2a1.92 1.92 0 0 1-.586 1.414c-.392.393-.86.586-1.414.586h-5c-.553 0-1.022.195-1.413.586A1.923 1.923 0 0 0 33.5 41v4c0 .554.195 1.023.587 1.414.391.393.86.586 1.413.586h5c.554 0 1.022.195 1.414.586.392.393.586.861.586 1.414v2a1.92 1.92 0 0 1-.586 1.414c-.392.393-.86.586-1.414.586h-5c-.553 0-1.022.195-1.413.586A1.925 1.925 0 0 0 33.5 55v5a2 2 0 0 0 2 2h5c.554 0 1.022.195 1.414.586.392.393.586.861.586 1.414v2a1.92 1.92 0 0 1-.586 1.414c-.392.393-.86.586-1.414.586h-5a2 2 0 0 0 0 4h31a2 2 0 0 0 2-2V30c0-.551-.194-1.021-.586-1.414zM33.5 38h5a2 2 0 0 0 0-4h-5a2 2 0 0 0 0 4zm0 14h5a2 2 0 0 0 0-4h-5a2 2 0 0 0 0 4zm5 15c.554 0 1.022-.193 1.414-.586A1.92 1.92 0 0 0 40.5 65c0-.553-.194-1.021-.586-1.414A1.925 1.925 0 0 0 38.5 63h-5c-.553 0-1.022.195-1.413.586A1.925 1.925 0 0 0 31.5 65c0 .554.195 1.023.587 1.414.391.393.86.586 1.413.586h5z"/></svg>