<svg xmlns="http://www.w3.org/2000/svg" width="100" height="100" viewBox="0 0 100 100"><path fill="#666" d="M66.541 49.504a1 1 0 0 0-1.002.997h-.026C65.245 58.827 58.412 65.5 50.001 65.5c-8.582 0-15.539-6.938-15.539-15.5 0-8.561 6.957-15.5 15.539-15.5 5.428 0 10.188 2.791 12.964 7h-6.448a1 1 0 1 0 0 2h9.021a1 1 0 0 0 1.003-1v-9c0-.553-.449-1-1.003-1a1 1 0 0 0-1.002 1v6.745C61.386 35.581 56.062 32.5 50 32.5c-9.688 0-17.543 7.836-17.543 17.5 0 9.665 7.854 17.5 17.543 17.5 9.445 0 17.122-7.456 17.501-16.785.017-.068.042-.137.042-.211 0-.551-.448-1-1.002-1zm-2.005-8.236v.232h-.399l.399-.232z"/></svg>