<svg xmlns="http://www.w3.org/2000/svg" width="100" height="100" viewBox="0 0 100 100"><path fill="#FFF" d="M50.501 39.989a6.5 6.5 0 0 0-6.496 6.505 6.5 6.5 0 0 0 6.496 6.504 6.499 6.499 0 0 0 6.495-6.504 6.5 6.5 0 0 0-6.495-6.505zm10.518 19.345c.263 0 .491.119.653.3.064.068.12.147.158.236a15.69 15.69 0 0 1 2.148 2.966C67.086 59.453 69 54.955 69 50c0-10.494-8.508-19-19-19-10.493 0-19 8.506-19 19a18.944 18.944 0 0 0 5.657 13.521c2.535-5.109 7.768-8.63 13.843-8.63 2.638 0 5.112.669 7.279 1.839.052.02.097.05.143.078.053.026.099.065.149.097l-.002.003a.881.881 0 0 1 .291.65.89.89 0 0 1-.887.889.885.885 0 0 1-.45-.141l-.238.319a13.06 13.06 0 0 0-6.286-1.612c-5.371 0-9.991 3.258-12.167 7.963A18.9 18.9 0 0 0 49.999 69c4.729 0 9.048-1.739 12.373-4.6a14.024 14.024 0 0 0-2.454-3.409l.34-.34a.866.866 0 0 1-.125-.429.89.89 0 0 1 .886-.888zm-10.518-4.443c-4.647 0-8.414-3.78-8.414-8.443 0-4.664 3.767-8.445 8.414-8.445 4.646 0 8.413 3.781 8.413 8.445 0 4.662-3.767 8.443-8.413 8.443z"/></svg>