<svg xmlns="http://www.w3.org/2000/svg" width="100" height="100" viewBox="0 0 100 100"><path fill="#004889" d="M45.493 41h-7.012c-.554 0-1.002.357-1.002.801v6.398c0 .441.448.801 1.002.801h7.012c.553 0 1.002-.357 1.002-.801v-6.398c0-.443-.451-.801-1.002-.801zm-1.002 6h-5.009v-4h5.009v4zm18.029 4H49.499a.999.999 0 1 0 0 2H62.52a.999.999 0 1 0 0-2zm2.003-14H35.477a3.004 3.004 0 0 0-3.005 3v20c0 1.655 1.346 3 3.005 3h29.046a3.004 3.004 0 0 0 3.004-3V40c0-1.655-1.345-3-3.004-3zm1 22c0 1.104-.896 2-2.002 2H36.478a2.003 2.003 0 0 1-2.003-2V41c0-1.104.896-2 2.003-2h27.043c1.105 0 2.002.896 2.002 2v18zm-3.003-3H49.499a.999.999 0 1 0 0 2H62.52a.999.999 0 1 0 0-2z"/></svg>