<svg xmlns="http://www.w3.org/2000/svg" width="100" height="100" viewBox="0 0 100 100"><path fill="#E6003E" d="M68.812 60.387A21.363 21.363 0 0 0 71.5 50.001c0-3.768-.979-7.307-2.688-10.389v-.388h-.237C64.847 32.822 57.928 28.5 49.998 28.5 38.144 28.5 28.5 38.144 28.5 50c0 11.854 9.644 21.5 21.498 21.5 7.929 0 14.849-4.324 18.575-10.729h.237l.002-.384zm-37.3-8.876h6.386c.13 2.055.959 4.124 1.521 5.993H33.48c-.79-1.803-1.783-3.875-1.968-5.993zm29.589-3.022c-.131-2.055.039-4.123-.521-5.992h5.938c.791 1.804.783 3.876.97 5.992h-6.387zm-3.405 0l-6.198.013v-6l5.495-.005c.656 1.855.553 3.927.703 5.992zm-6.198-8.988V34.5c1.479 1.463 2.911 3.184 3.911 5.009h-3.718l-.193-.008zm-3-5.001v5.001l-3.911.008c.999-1.825 2.235-3.661 3.714-5.124l.197.115zm0 8.001v6l-7.197-.013c.149-2.064 1.046-4.139 1.703-5.992h5.297l.197.005zm-10.601 5.988h-6.386c.187-2.116 1.179-4.188 1.97-5.992h5.938c-.563 1.867-1.391 3.939-1.522 5.992zm3.601 3.012h7v6l-5.494.003c-.657-1.854-1.554-3.927-1.703-5.993l.197-.01zm7 9v5c-1.478-1.462-2.912-3.186-3.911-5.01h3.718l.193.01zm3 5v-5l3.911-.01c-1 1.824-2.234 3.659-3.714 5.123l-.197-.113zm0-8v-6l6.198.01c-.15 2.066-.048 4.14-.704 5.993h-5.298l-.196-.003zm9.603-5.99h6.386c-.187 2.118-.179 4.19-.97 5.993h-5.938c.561-1.869.391-3.94.522-5.993zm3.381-12.002h-5.254c-1.156-2.542-2.691-4.986-4.608-6.993 4.018 1.063 7.453 3.613 9.862 6.993zm-19.106-6.993c-1.917 2.007-3.451 4.451-4.608 6.993h-5.254c2.408-3.38 5.845-5.93 9.862-6.993zM35.514 60.49h5.254c1.157 2.544 2.691 4.986 4.608 6.994-4.017-1.062-7.454-3.611-9.862-6.994zm19.105 6.995c1.917-2.008 3.451-4.45 4.608-6.993h5.254c-2.408 3.381-5.843 5.93-9.862 6.993z"/></svg>