<svg xmlns="http://www.w3.org/2000/svg" width="100" height="100" viewBox="0 0 100 100"><path fill="#AA967C" d="M51.53 25.564c.904.163 1.55.396 1.882 1.483 1.36 4.447 2.876 8.849 4.331 13.268.132.401.241.812.395 1.331.742-.812 1.455-1.541 2.11-2.317.859-1.019 1.729-2.032 2.497-3.116 2.329-3.29 3.918-6.852 3.555-10.994-.11-1.268-.606-2.422-1.464-3.465-.804-.982-1.809-1.541-2.905-2.036.03-.073.062-.146.093-.218.956.429 2.043.692 2.848 1.318 1.702 1.328 2.814 3.094 3.18 5.284.34 2.044.083 4.028-.396 6.019-.708 2.939-2.179 5.472-4.066 7.794-1.295 1.588-2.594 3.175-3.838 4.802-.198.261-.256.774-.151 1.102 1.334 4.192 2.706 8.374 4.073 12.557 1.091 3.335 2.192 6.668 3.287 10.003.515 1.563 1.022 3.133 1.537 4.71-1.262.08-2.489.171-3.719.215-.158.006-.419-.204-.474-.366-1.223-3.666-2.41-7.342-3.629-11.008-.648-1.951-1.354-3.883-2.013-5.832-.794-2.354-1.563-4.716-2.379-7.186-.959 1.014-1.854 1.937-2.721 2.884-.661.722-1.273 1.488-1.928 2.219-2.345 2.607-4.73 5.181-7.04 7.821-1.856 2.125-3.69 4.275-5.414 6.51-1.563 2.028-2.652 4.297-2.601 6.958.037 1.88 1.438 3.512 3.27 3.938 1.53.354 2.899.152 4.21-.74 1.19-.813 2.445-1.534 3.575-2.235-.538.539-1.146 1.261-1.866 1.842-1.356 1.095-2.822 1.968-4.61 2.271-1.791.304-3.449.02-5.113-.615-2.967-1.129-4.078-3.514-4.463-6.402-.442-3.321.98-6.021 3.042-8.427 1.515-1.767 3.084-3.507 4.799-5.076 1.702-1.559 3.354-3.166 4.447-5.174a30.847 30.847 0 0 0 2.375-5.682c1.254-4.079 2.431-8.189 3.438-12.335.667-2.742.994-5.566 1.458-8.355.149-.909.257-1.819.388-2.75zm-4.033 26.734l.172.128c2.315-2.333 4.642-4.657 6.927-7.019.2-.208.264-.717.167-1.015-.695-2.206-1.449-4.394-2.183-6.588-.153-.461-.296-.928-.441-1.395-1.174 5.458-2.682 10.736-4.642 15.889z"/></svg>