<svg xmlns="http://www.w3.org/2000/svg" width="100" height="100" viewBox="0 0 100 100"><path fill="#699926" d="M23.998 63.4c.336-.813.957-1.056 1.812-1.022 2.063.073 4.127.097 6.19.115.994.01 1.889-.331 2.663-.958 2.337-1.891 4.989-2.459 7.938-2.022 2.641.392 5.229.975 7.83 1.769.061-.45.137-.86.168-1.274.115-1.565.229-3.134.314-4.702.014-.227-.072-.522-.225-.684a344.29 344.29 0 0 0-4.842-5.052c-.144-.146-.442-.215-.66-.196-2.539.196-4.96-.086-7.088-1.646a6.45 6.45 0 0 1-2.278-2.979c-.61-1.631-1.118-3.303-1.626-4.99.992.574 2.02.952 3.129 1.121.965.146 1.938.288 2.878.541 2.603.701 4.148 2.532 5.1 4.948.245.625.419 1.276.644 1.909.064.183.154.39.297.497 1.572 1.196 3.155 2.375 4.742 3.563 0-.002.032-.074.032-.146-.022-2.706-.189-5.397-.673-8.065-.062-.329-.22-.434-.487-.542-2.272-.935-4.209-2.3-5.486-4.449-1.236-2.083-1.722-4.357-1.191-6.717.557-2.478 1.327-4.902 2.006-7.353.083-.304.164-.606.286-1.062.346 1.41.897 2.563 1.753 3.533.715.812 1.491 1.566 2.264 2.326 1.186 1.171 2.336 2.378 2.875 3.992 1.123 3.354 1.02 6.567-1.18 9.521-.109.146-.17.414-.119.586.775 2.662 1.236 5.384 1.551 8.132.148 1.307.219 2.622.336 4.06.904-1.39 1.748-2.681 2.578-3.979a.533.533 0 0 0 .031-.426c-1.402-3.087.068-7.611 2.998-9.567.602-.402 1.152-.885 1.703-1.358.74-.645 1.217-1.47 1.588-2.408.174.96.395 1.915.508 2.883.131 1.139.254 2.288.227 3.431-.084 3.46-1.947 5.747-5.029 7.049-.889.374-1.443.799-1.811 1.699-.746 1.839-1.619 3.628-2.455 5.433-.438.939-.186 1.931-.229 2.896-.002.087.297.275.443.267.834-.053 1.68-.097 2.498-.243 1.395-.251 2.76-.662 4.154-.847 1.143-.146 2.297.069 3.355.583 1.482.72 1.596 2.169.236 3.104-.33.228-.691.446-1.072.558-1.129.332-2.271.613-3.414.906-2.039.521-4.08 1.038-6.119 1.56a.741.741 0 0 0-.371.229c.631.113 1.264.211 1.893.342 1.121.233 2.234.511 3.361.716.377.068.803.041 1.174-.062 1.801-.495 3.59-1.026 5.381-1.561.254-.073.498-.205.727-.346 1.164-.72 2.352-1.405 3.463-2.198.635-.451 1.145-1.078 1.695-1.641.826-.843 1.625-1.714 2.469-2.541.246-.243.58-.411.896-.563.941-.442 1.527-.303 2.174.49v.913c-.188.403-.342.827-.57 1.206a304.554 304.554 0 0 1-2.734 4.377 2.278 2.278 0 0 1-.52.549 496.276 496.276 0 0 1-5.064 3.888 5.765 5.765 0 0 1-1.188.666c-1.689.718-3.379 1.438-5.094 2.102-1.596.618-3.223 1.161-4.836 1.736h-2.336c-.096-.03-.188-.077-.285-.09-1.887-.245-3.779-.452-5.663-.735-2.884-.437-5.757-.932-8.637-1.379-3.052-.478-6.104-.938-9.212-.849-1.283.038-2.565.077-3.852.081-.934.002-1.742-.239-2.012-1.296-.002-2.776-.002-5.551-.002-8.329z"/></svg>