<svg xmlns="http://www.w3.org/2000/svg" width="100" height="100" viewBox="0 0 100 100"><path fill="#1E814E" d="M29 66.949c0-11.359 0-22.72.005-34.077 0-.124.054-.248.081-.371.512.511 1.018 1.025 1.531 1.534.696.683 1.4 1.354 2.122 2.054 1.187-1.221 2.332-2.405 3.479-3.588h.085l3.696 3.471 3.692-3.471h.086c1.153 1.188 2.308 2.379 3.484 3.596 1.116-1.082 2.194-2.123 3.269-3.168.139-.133.254-.284.381-.428h.172c.287.315.563.644.861.95.846.868 1.698 1.731 2.523 2.571l3.747-3.521h.086l3.696 3.471 3.691-3.471h.087c1.153 1.188 2.306 2.379 3.488 3.599 1.115-1.083 2.19-2.124 3.264-3.171.14-.133.254-.284.381-.428h.086c0 11.26 0 22.52-.003 33.776 0 2.342-1.951 4.221-4.39 4.221-11.742.003-23.484.003-35.228 0-2.047 0-3.821-1.368-4.285-3.286-.014-.09-.056-.176-.087-.263zm3.985-.452h18.022V52.488H32.985v14.009zm-.001-17h36.022v-5.988H32.984v5.988zm20.002 9.014h16.022v-2.006H52.986v2.006zm16.024 5.977H52.997v2.019H69.01v-2.019zm-16.024-1.996h16.022v-1.979H52.986v1.979zm.008-9.983v1.98H69v-1.98H52.994z"/></svg>