<svg xmlns="http://www.w3.org/2000/svg" width="100" height="100" viewBox="0 0 100 100"><path fill="#D43032" d="M56.733 49.864C60.927 48.676 64 44.827 64 40.254c0-4.578-3.078-8.43-7.276-9.615 2.619 2.379 4.272 5.801 4.272 9.618 0 3.811-1.649 7.23-4.263 9.607zm-7.743.385c5.525 0 10.005-4.479 10.005-10.007 0-5.524-4.479-10.005-10.005-10.005-5.523 0-10.005 4.479-10.005 10.005.001 5.528 4.482 10.007 10.005 10.007zm.01 4.005c-9.94 0-18 8.281-18 18.5 0 .169.021.332.023.5h35.951c.004-.168.022-.331.022-.5.004-10.219-8.054-18.5-17.996-18.5zm.004 16.01l-3.007-2.994 2.253-8.016h1.5l2.259 8.016-3.005 2.994zm5.701-18.884c-.24.146-.484.289-.737.42 8.551 1.95 15.093 9.338 15.936 18.454h3.005c-.916-9.914-8.558-17.817-18.204-18.874z"/></svg>