<svg xmlns="http://www.w3.org/2000/svg" width="100" height="100" viewBox="0 0 100 100"><path fill="#429AE0" d="M51.64 30.25c-11.378 0-20.604 9.194-20.604 20.537 0 5.261 2 10.042 5.264 13.676l-6.063 8.779 15.342-2.824c1.916.588 3.949.905 6.061.905 11.379 0 20.602-9.193 20.602-20.536C72.24 39.445 63.019 30.25 51.64 30.25zm2.517 10.007c-.23 3.889-.463 7.735-.695 11.645h-3.221l-.983-11.645h4.899zm-2.486 19.971c-1.389-.006-2.412-1.014-2.41-2.365.021-1.393.864-2.26 2.417-2.383 1.309-.104 2.597 1.154 2.552 2.39-.054 1.414-1.085 2.365-2.559 2.358z"/></svg>