<svg xmlns="http://www.w3.org/2000/svg" width="100" height="100" viewBox="0 0 100 100"><path fill="#004889" d="M42 35.246c-6.378.063-11.769 5.876-11.896 12.231h-.035L30 73.175l25.707.07.003-.004c6.338-.111 12.165-5.674 12.291-11.996V35.244L42 35.246l-.173.178.173-.178zm21 26.001c-.112 3.802-3.382 6.929-7.182 7.047l-20.89-.059.058-20.67c.079-3.897 3.093-7.311 7.013-7.318h21l.001 21zm7.813-31H45v2h26v26h2v-28h-2.187zM40.984 58.233h16.008v3.024H40.984v-3.024zm0-5.997h16.008v2.995H40.984v-2.995zm0-5.983h16.008v2.995H40.984v-2.995z"/></svg>