<svg xmlns="http://www.w3.org/2000/svg" width="100" height="100" viewBox="0 0 100 100"><path fill="#E6003E" d="M76.969 48.79h-4c-.416 0-.813.085-1.173.237a20.933 20.933 0 0 0-4.156-9.983 2.988 2.988 0 0 0 1.016-.666l2.829-2.828a3.001 3.001 0 0 0 0-4.243 2.998 2.998 0 0 0-4.242 0l-2.828 2.828a2.992 2.992 0 0 0-.668 1.023 20.926 20.926 0 0 0-9.995-4.139c.159-.367.252-.771.252-1.198v-4a3.002 3.002 0 0 0-3-3.001c-1.656 0-3 1.344-3 3.001v4c0 .427.092.83.252 1.197a20.856 20.856 0 0 0-9.996 4.138 2.965 2.965 0 0 0-.668-1.021l-2.828-2.828a3 3 0 1 0-4.243 4.243l2.829 2.828c.301.301.649.521 1.021.668a20.915 20.915 0 0 0-4.158 9.982 3.032 3.032 0 0 0-1.177-.238h-4a3.001 3.001 0 0 0 0 6h4a2.97 2.97 0 0 0 1.163-.234 20.871 20.871 0 0 0 4.127 9.996 3.007 3.007 0 0 0-.977.651L30.52 68.03a3 3 0 1 0 4.243 4.243l2.826-2.828c.289-.289.507-.623.651-.979a20.91 20.91 0 0 0 9.987 4.152 2.958 2.958 0 0 0-.229 1.139v4.001a3 3 0 0 0 6 0v-4.001a2.99 2.99 0 0 0-.226-1.136 20.88 20.88 0 0 0 9.989-4.147c.146.354.359.687.646.973l2.829 2.828a2.998 2.998 0 1 0 4.242-4.242l-2.829-2.828a2.958 2.958 0 0 0-.983-.654 20.894 20.894 0 0 0 4.132-9.992c.357.15.752.234 1.166.234h4a3 3 0 0 0 3-3 2.993 2.993 0 0 0-2.995-3.003zM51 66.822c-8.283 0-15-6.716-15-15 0-8.283 6.717-15 15-15s15 6.717 15 15c0 8.284-6.717 15-15 15zm0-20c-2.763 0-5 2.238-5 5s2.237 5 5 5 5-2.238 5-5-2.237-5-5-5z"/></svg>