<svg xmlns="http://www.w3.org/2000/svg" width="100" height="100" viewBox="0 0 100 100"><path fill="#E6003E" d="M52.983 36.372c.003-.028.017-.055.017-.082v-3h2a2 2 0 0 0 0-4h-8a2 2 0 0 0 0 4h2v3c0 .027.016.054.019.082C35.033 37.41 24 49.302 24 63.29v1c0 .93 1.028 2 2.025 2h50.001c.901 0 1.974-1.025 1.974-2v-1c0-13.988-11.032-25.88-25.017-26.918zM72.995 61.29H73s-.003.036-.005 0H29.006c-.004.032-.006 0-.006 0h.006c.005-.069.011-.432-.006-2 2.188-11.39 9.533-18 22-18 12.471 0 19.813 6.606 22 18a89.255 89.255 0 0 0-.005 2zm2.005 9H27a2 2 0 0 0 0 4h48a2 2 0 0 0 0-4z"/></svg>