<svg xmlns="http://www.w3.org/2000/svg" width="100" height="100" viewBox="0 0 100 100"><path fill="#E6003E" d="M55.945 49.909c4.192-1.19 7.268-5.038 7.268-9.612 0-4.578-3.078-8.428-7.275-9.615 2.619 2.379 4.271 5.801 4.271 9.619 0 3.812-1.649 7.229-4.264 9.608zm-7.743.382c5.525 0 10.007-4.479 10.007-10.005 0-5.526-4.479-10.005-10.007-10.005-5.524 0-10.005 4.479-10.005 10.005 0 5.525 4.482 10.005 10.005 10.005zm5.716 1.131c-.241.146-.485.29-.738.421 8.551 1.949 15.093 9.337 15.937 18.454h3.006c-.916-9.914-8.56-17.818-18.205-18.875zm-5.704 2.875c-9.941 0-18 8.283-18 18.5 0 .169.021.332.022.5h35.951c.004-.168.024-.331.024-.5.003-10.218-8.057-18.5-17.997-18.5zm.002 16.01l-3.005-2.994 2.253-8.017h1.5l2.258 8.017-3.006 2.994z"/></svg>