<svg xmlns="http://www.w3.org/2000/svg" width="100" height="100" viewBox="0 0 100 100"><path fill="#149FCC" d="M51.992 36.132c-1.25-2.137-2.84-3.889-5.305-4.604-.131-.038-.289-.255-.299-.396a59.035 59.035 0 0 1-.109-2.76c-.009-.409-.081-.702-.58-.685-.251.009-.504-.059-.764-.092v-1.381c.349-.057.678-.109 1.064-.174-.072-.434-.14-.857-.214-1.281-.109-.629-.271-.762-.909-.761-3.196.009-6.393.011-9.589.024-.451.003-.914.017-1.354.108-.664.141-1.35.271-1.969.835.256.221.504.388.692.607.257.301.496.332.882.219 1.446-.432 2.924-.44 4.389-.1.733.173 1.396.671 2.209.514.02-.004.043.029.021.014v1.521c-.237 0-.396-.008-.557.001-.701.035-.721.058-.722.775-.003.708.046 1.42-.021 2.123-.032.348.146.838-.412 1.018-1.565.502-2.813 1.458-3.833 2.762-2.511 3.191-3.434 6.846-3.021 10.854.203 1.973.732 3.879 1.401 5.749.706 1.975 1.611 3.886 1.741 6.043.063 1.032-.092 1.942-.772 2.729-.396.456-.655.972-.609 1.599.083 1.125.179 2.249.267 3.373.104 1.303.179 2.607.311 3.908.165 1.618.429 3.228.55 4.849.08 1.062.889 1.409 1.513 2.057.701.728 12.59.388 13.997-.102.668-.231.994-.76 1.123-1.308.238-1.023.315-2.088.419-3.14.124-1.269.215-2.539.302-3.812.138-2.042.277-4.083.368-6.127.017-.335-.167-.72-.354-1.017-.438-.685-.938-1.328-.99-2.188-.097-1.507.247-2.944.713-4.354.518-1.563 1.112-3.103 1.597-4.677.736-2.402.878-4.869.617-7.367-.203-1.922-.827-3.703-1.793-5.356zM62.503 32h-6.001c0 .485.212 1.674.212 1.674s.402 2.205.556 3.313c.154 1.128.244 2.268.361 3.399.146 1.394.313 2.786.427 4.183.117 1.448.195 2.9.266 4.354.072 1.501.139 3.003.164 4.506.019 1.063-.036 2.128-.054 3.192-.068 4.599-.132 9.193-.213 13.792-.007.353.063.613.302.874.139.15.229.116.233.325.022 1.034.011 2.354.011 3.477 0 .344 1.966.692 3.843.692 1.801 0 3.841-.35 3.841-.692 0-1.12-.013-2.441.012-3.477.005-.209.097-.174.233-.325.237-.261.309-.521.302-.874-.081-4.598-.146-9.192-.214-13.792-.018-1.063-.069-2.128-.054-3.192.026-1.503.093-3.005.164-4.506.069-1.452.146-2.904.266-4.354.112-1.396.28-2.789.427-4.183.117-1.134.208-2.271.362-3.399.149-1.108.556-3.313.556-3.313V32h-6.002z"/></svg>