<svg xmlns="http://www.w3.org/2000/svg" width="100" height="100" viewBox="0 0 100 100"><path fill="#177EE5" d="M57.726 26.707H37.672c-1.258 0-2.28 1.081-2.28 2.411v41.765c0 1.334 1.022 2.411 2.28 2.411h20.053c1.26 0 2.282-1.077 2.282-2.407V29.118c.001-1.334-1.022-2.411-2.281-2.411zm-10.027 44.18c-.84 0-1.521-.721-1.521-1.607 0-.889.68-1.607 1.521-1.607.841 0 1.521.72 1.521 1.607.001.886-.68 1.607-1.521 1.607zm10.027-5.626H37.672V31.526h20.053v33.735zm8.878-32.777h3.497v11.811h-3.497z"/><path fill="#177EE5" d="M62.814 36.524h11.078v3.729H62.814z"/></svg>