<svg xmlns="http://www.w3.org/2000/svg" width="100" height="100" viewBox="0 0 100 100"><path fill="#2284E6" d="M79.948 33.782c-1.457-2.224-7.841-.822-16.389 3.116L51.43 25.705l-10.504 9.692v-2.696h-5v7.313l-4.006 3.697h4.006-4.011v13.505c-8.57 7.233-13.487 13.547-11.864 16.021 1.51 2.301 8.287.73 17.284-3.526h33.584V47.338c6.797-6.176 10.466-11.366 9.029-13.556zm-6.357 3.028c.18 1.037-1.324 3.063-4.006 5.652l-4.511-4.163c5.154-2.338 8.269-2.938 8.517-1.489zm-37.477 8.705l15.319-14.826 13.455 13.022h3.358-3.356l1.598 1.546c-3.899 3.331-9.109 7.206-14.889 10.991-5.657 3.707-11.146 6.858-15.673 9.078V45.515h.188zM25.226 68.548c-1.365-.895 1.352-4.325 6.69-8.896v7.498c-3.39 1.398-5.822 1.966-6.69 1.398zm41.701-2.847H45.038a159.907 159.907 0 0 0 9.249-5.655c4.687-3.087 8.965-6.242 12.64-9.264v14.919z"/></svg>