<svg xmlns="http://www.w3.org/2000/svg" width="100" height="100" viewBox="0 0 100 100"><path fill="#1E814E" d="M56.738 61.514c-2.714 1.515-4.309 4.266-5.198 6.452V55.188c0-.018-.01-.03-.011-.047 3.105-.313 6.723-2.121 9.78-5.182 5.181-5.181 3.607-15.15 3.607-15.15s-4.069.365-8.359 1.253c-2.367-4.467-6.598-8.561-6.598-8.561s-4.608 4.354-6.899 9.13c-4.708-1.414-9.715-1.637-9.715-1.637s-1.541 9.771 3.535 14.849c3.684 3.683 8.187 5.515 11.577 5.059.042.014.088.021.131.031-.021.083-.052.164-.052.254v13.031c-.885-2.283-2.489-5.201-5.251-6.796-4.977-2.873-11.812-.352-11.812-.352s1.233 7.182 6.209 10.055c3.969 2.29 9.106 1.151 11.03.597a.985.985 0 0 0 .822.465h1a.988.988 0 0 0 .938-.692c2.03.548 6.994 1.533 10.854-.619 4.968-2.771 6.197-9.699 6.197-9.699s-6.817-2.437-11.785.337z"/></svg>