<svg xmlns="http://www.w3.org/2000/svg" width="100" height="100" viewBox="0 0 100 100"><path fill="none" d="M44.147 51.201a8.507 8.507 0 0 1-1.035-1.771c-.36.636-.683.888-.683.888l.027 3.041s.165.094.648.321a54.96 54.96 0 0 0 1.021-.471l.022-2.008zm13.396 1.957c.17.079.371.171.597.271.05-.025.073-.042.073-.042l.029-3.059s-.039-.034-.094-.087a7.8 7.8 0 0 1-.624.946l.019 1.971z"/><path fill="#D43032" d="M74.051 56.75c-2.606-1.298-1.521-.305-4.72-1.633-3.2-1.326-3.915-1.76-3.915-1.76l-.01-3.041s1.211-.91 1.583-3.787c.748.217 1.008-.878 1.048-1.577.044-.675.444-2.781-.471-2.594.188-1.406.335-2.678.269-3.353-.229-2.359-1.857-4.828-5.978-5.008a7.223 7.223 0 0 0-1.401.217c.086.392.153.779.19 1.165.08.824-.008 2.005-.196 3.584.773 1.033.691 2.473.514 4.098a9.779 9.779 0 0 0-.045.442c-.105 1.856-.77 2.957-1.594 3.517-.302 1.405-.741 2.453-1.178 3.223.055.053.093.087.093.087l-.028 3.06s-.023.016-.073.042c.754.341 1.828.811 3.342 1.44 1.83.767 2.421.865 2.942.954.869.146 1.412.313 3.272 1.247 3.833 1.923 5.328 5.676 5.917 8.456h3.173c.854 0 1.213-.229 1.213-1.081v-.004c.003 0 .17-5.643-3.947-7.694zm-40.247.252c1.877-.941 2.601-1.057 3.488-1.18.506-.068 1.079-.129 2.895-.89 1.253-.522 2.204-.935 2.919-1.255a13.41 13.41 0 0 1-.648-.32l-.027-3.041s.321-.252.683-.889a12.065 12.065 0 0 1-.766-2.407c-.817-.563-1.477-1.66-1.593-3.518a9.314 9.314 0 0 0-.044-.457c-.142-1.325-.313-2.957.523-4.08-.203-1.746-.255-2.823-.183-3.583.031-.314.091-.636.164-.956a8.306 8.306 0 0 0-2.356-.429c-3.501.18-5.773 2.648-6.003 5.01-.065.675.067 1.943.255 3.354-.915-.189-.521 1.92-.479 2.595.044.699.292 1.798 1.042 1.581.373 2.876 1.571 3.793 1.571 3.793l-.03 3.06s-.758.464-3.958 1.788c-3.198 1.328-2.195.316-4.802 1.615-4.119 2.051-4.286 7.736-4.286 7.736H22v-.081c0 .854 1.025 1.081 1.88 1.081h3.904c.666-2.844 2.282-6.652 6.02-8.527z"/><path fill="#D43032" d="M72.334 68.959v.005a2.023 2.023 0 0 1-2.017 2.032H31.35a2.025 2.025 0 0 1-2.017-2.032v-.005h-.001s0-7.405 5.367-10.099c3.396-1.703 2.088-.32 6.258-2.063 4.169-1.74 5.156-2.349 5.156-2.349l.039-4.014s-1.563-1.203-2.046-4.979c-.979.285-1.3-1.156-1.356-2.074-.054-.886-.564-3.653.626-3.403-.244-1.851-.418-3.517-.333-4.398.299-3.102 3.262-6.339 7.821-6.575 5.368.235 7.493 3.474 7.792 6.572.087.884-.104 2.553-.35 4.396 1.192-.247.675 2.519.616 3.403-.053.918-.383 2.354-1.356 2.069-.486 3.773-2.049 4.971-2.049 4.971l.037 3.992s.985.567 5.155 2.31c4.169 1.743 2.86.44 6.258 2.146 5.368 2.689 5.368 10.095 5.367 10.095z"/></svg>