<?xml version="1.0" encoding="utf-8"?>
<!-- Generator: Adobe Illustrator 16.0.0, SVG Export Plug-In . SVG Version: 6.00 Build 0)  -->
<!DOCTYPE svg PUBLIC "-//W3C//DTD SVG 1.1//EN" "http://www.w3.org/Graphics/SVG/1.1/DTD/svg11.dtd">
<svg version="1.1" id="图层_1" xmlns="http://www.w3.org/2000/svg" xmlns:xlink="http://www.w3.org/1999/xlink" x="0px" y="0px"
	 width="100px" height="100px" viewBox="0 0 100 100" enable-background="new 0 0 100 100" xml:space="preserve">
<g>
	<g>
		<path fill="#156AB6" d="M64.693,30.152l-16.435,9.957c-0.329,0.2-0.6,0.759-0.706,1.38H33.516c-1.104,0-2,0.896-2,2v12
			c0,1.104,0.896,2,2,2h5.276c-0.172,0.295-0.276,0.633-0.276,0.998v10.004c0,1.104,0.896,1.998,1.998,1.998h0.004
			c1.104,0,1.998-0.895,1.998-1.998V58.487c0-0.365-0.104-0.703-0.275-0.998h5.313c0.106,0.624,0.377,1.188,0.708,1.389
			l16.435,9.958c1.986,1.204,3.789,0.684,3.789-1.31V31.462C68.482,29.472,66.681,28.948,64.693,30.152z"/>
	</g>
</g>
</svg>
