<?xml version="1.0" encoding="utf-8"?>
<!-- Generator: Adobe Illustrator 16.0.0, SVG Export Plug-In . SVG Version: 6.00 Build 0)  -->
<!DOCTYPE svg PUBLIC "-//W3C//DTD SVG 1.1//EN" "http://www.w3.org/Graphics/SVG/1.1/DTD/svg11.dtd">
<svg version="1.1" id="图层_1" xmlns="http://www.w3.org/2000/svg" xmlns:xlink="http://www.w3.org/1999/xlink" x="0px" y="0px"
	 width="100px" height="100px" viewBox="0 0 100 100" enable-background="new 0 0 100 100" xml:space="preserve">
<g>
	<g>
		<path fill="#666666" d="M66.541,49.504c-0.554,0-1,0.446-1.002,0.997h-0.026C65.245,58.827,58.412,65.5,50.001,65.5
			c-8.582,0-15.539-6.938-15.539-15.5c0-8.561,6.957-15.5,15.539-15.5c5.428,0,10.188,2.791,12.964,7h-6.448
			c-0.555,0-1.003,0.447-1.003,1c0,0.555,0.449,1,1.003,1h9.021c0.554,0,1.003-0.445,1.003-1v-9c0-0.553-0.449-1-1.003-1
			s-1.002,0.447-1.002,1v6.745C61.386,35.581,56.062,32.5,50,32.5c-9.688,0-17.543,7.836-17.543,17.5
			c0,9.665,7.854,17.5,17.543,17.5c9.445,0,17.122-7.456,17.501-16.785c0.017-0.068,0.042-0.137,0.042-0.211
			C67.543,49.953,67.095,49.504,66.541,49.504z M64.536,41.268V41.5h-0.399L64.536,41.268z"/>
	</g>
</g>
</svg>
