<?xml version="1.0" encoding="utf-8"?>
<!-- Generator: Adobe Illustrator 16.0.0, SVG Export Plug-In . SVG Version: 6.00 Build 0)  -->
<!DOCTYPE svg PUBLIC "-//W3C//DTD SVG 1.1//EN" "http://www.w3.org/Graphics/SVG/1.1/DTD/svg11.dtd">
<svg version="1.1" id="图层_1" xmlns="http://www.w3.org/2000/svg" xmlns:xlink="http://www.w3.org/1999/xlink" x="0px" y="0px"
	 width="100px" height="100px" viewBox="0 0 100 100" enable-background="new 0 0 100 100" xml:space="preserve">
<g>
	<g>
		<path fill="#FFFFFF" d="M50.501,39.989c-3.589,0-6.496,2.912-6.496,6.505c0,3.592,2.907,6.504,6.496,6.504
			c3.588,0,6.495-2.912,6.495-6.504C56.996,42.901,54.089,39.989,50.501,39.989z M61.019,59.334c0.263,0,0.491,0.119,0.653,0.3
			c0.064,0.068,0.12,0.147,0.158,0.236c0.827,0.896,1.548,1.896,2.148,2.966C67.086,59.453,69,54.955,69,50c0-10.494-8.508-19-19-19
			c-10.493,0-19,8.506-19,19c0,5.292,2.167,10.074,5.657,13.521c2.535-5.109,7.768-8.63,13.843-8.63
			c2.638,0,5.112,0.669,7.279,1.839c0.052,0.02,0.097,0.05,0.143,0.078c0.053,0.026,0.099,0.065,0.149,0.097l-0.002,0.003
			c0.176,0.162,0.291,0.391,0.291,0.65c0,0.488-0.396,0.889-0.887,0.889c-0.168,0-0.315-0.062-0.45-0.141l-0.238,0.319
			c-1.877-1.026-4.015-1.612-6.286-1.612c-5.371,0-9.991,3.258-12.167,7.963C41.555,67.49,45.597,69,49.999,69
			c4.729,0,9.048-1.739,12.373-4.6c-0.654-1.261-1.474-2.417-2.454-3.409l0.34-0.34c-0.073-0.129-0.125-0.271-0.125-0.429
			C60.134,59.734,60.53,59.334,61.019,59.334z M50.501,54.891c-4.647,0-8.414-3.78-8.414-8.443c0-4.664,3.767-8.445,8.414-8.445
			c4.646,0,8.413,3.781,8.413,8.445C58.914,51.11,55.147,54.891,50.501,54.891z"/>
	</g>
</g>
</svg>
