<svg xmlns="http://www.w3.org/2000/svg" width="100" height="100" viewBox="0 0 100 100"><path fill="#333" d="M50.811 31.928c-.033-.048-.054-.103-.096-.146a.976.976 0 0 0-.715-.28.972.972 0 0 0-.715.28c-.042.043-.063.098-.096.146L31.273 46.832a.978.978 0 0 0 1.382 1.382L50 33.88l17.345 14.334a.978.978 0 0 0 1.382-1.382L50.811 31.928zm-14.82 17.57a1 1 0 0 1 1.001 1v14a2 2 0 0 0 2.001 2h5.003v-11c0-.554.447-1 1-1h10.005c.554 0 1 .446 1 1v11h5.003a2.002 2.002 0 0 0 2.001-2v-14a1 1 0 0 1 1-1 .999.999 0 0 1 1.001 1v14c0 2.209-1.792 4-4.002 4H38.993a4.001 4.001 0 0 1-4.002-4v-14a1 1 0 0 1 1-1zm18.01 17v-10h-8.004v10h8.004z"/></svg>