<?xml version="1.0" encoding="utf-8"?>
<!-- Generator: Adobe Illustrator 16.0.0, SVG Export Plug-In . SVG Version: 6.00 Build 0)  -->
<!DOCTYPE svg PUBLIC "-//W3C//DTD SVG 1.1//EN" "http://www.w3.org/Graphics/SVG/1.1/DTD/svg11.dtd">
<svg version="1.1" id="图层_1" xmlns="http://www.w3.org/2000/svg" xmlns:xlink="http://www.w3.org/1999/xlink" x="0px" y="0px"
	 width="100px" height="100px" viewBox="0 0 100 100" enable-background="new 0 0 100 100" xml:space="preserve">
<g>
	<g>
		<path fill="#004889" d="M45.493,41h-7.012c-0.554,0-1.002,0.357-1.002,0.801v6.398c0,0.441,0.448,0.801,1.002,0.801h7.012
			c0.553,0,1.002-0.357,1.002-0.801v-6.398C46.495,41.358,46.044,41,45.493,41z M44.491,47h-5.009v-4h5.009V47z M62.52,51H49.499
			c-0.555,0-1.002,0.446-1.002,1s0.447,1,1.002,1H62.52c0.555,0,1.002-0.446,1.002-1S63.072,51,62.52,51z M64.523,37H35.477
			c-1.659,0-3.005,1.345-3.005,3v20c0,1.655,1.346,3,3.005,3h29.046c1.658,0,3.004-1.345,3.004-3V40
			C67.527,38.345,66.182,37,64.523,37z M65.523,59c0,1.104-0.896,2-2.002,2H36.478c-1.104,0-2.003-0.896-2.003-2V41
			c0-1.104,0.896-2,2.003-2h27.043c1.105,0,2.002,0.896,2.002,2V59z M62.52,56H49.499c-0.555,0-1.002,0.446-1.002,1s0.447,1,1.002,1
			H62.52c0.555,0,1.002-0.446,1.002-1S63.072,56,62.52,56z"/>
	</g>
</g>
</svg>
